<?xml version="1.0" encoding="iso-8859-1"?>
<!-- Generator: Adobe Illustrator 18.0.0, SVG Export Plug-In . SVG Version: 6.00 Build 0)  -->
<!DOCTYPE svg PUBLIC "-//W3C//DTD SVG 1.1//EN" "http://www.w3.org/Graphics/SVG/1.1/DTD/svg11.dtd">
<svg version="1.1" id="Capa_1" xmlns="http://www.w3.org/2000/svg" xmlns:xlink="http://www.w3.org/1999/xlink" x="0px" y="0px"
	 viewBox="0 0 491.915 491.915" style="enable-background:new 0 0 491.915 491.915;" xml:space="preserve">
<g id="XMLID_83_">
	<path id="XMLID_108_" d="M194.353,362.834c-5.949-25.607-26.05-48.023-25.985-48.529c0.418,0.177-24.521,16.282-21.98,44.685
		c3.151,28.632,20.324,43.564,34.459,43.402C195.608,402.409,200.415,388.941,194.353,362.834z"/>
	<path id="XMLID_107_" d="M119.694,345.684c12.043,3.564,19.827-6.182,21.386-29.491c1.528-22.898-10.774-47.115-10.645-47.491
		c0.289,0.2-24.185,8.376-28.56,32.796C97.839,326.18,108.034,342.365,119.694,345.684z"/>
	<path id="XMLID_106_" d="M75.279,239.749c-8.362,19.722-3.635,35.087,5.176,40.458c9.039,5.628,17.802-0.388,24.25-19.514
		c6.287-18.798,0.675-42.419,0.869-42.677C105.736,218.193,83.898,220.259,75.279,239.749z"/>
	<path id="XMLID_105_" d="M65.823,180.83c-11.192,15.983-10.081,30.48-3.441,37.082c6.803,6.858,15.792,3.464,25.294-12.342
		c9.359-15.582,8.909-38.312,9.103-38.488C96.858,167.258,77.193,165.023,65.823,180.83z"/>
	<path id="XMLID_104_" d="M58.009,158.977c4.469,6.97,12.59,5.852,23.283-6.094c10.564-11.803,13.926-31.88,14.104-32
		c0.064,0.137-16.034-4.728-28.142,7.011C55.242,139.842,53.651,152.175,58.009,158.977z"/>
	<path id="XMLID_103_" d="M108.998,393.844c-30.761-8.618-52.47,8.86-52.42,9.32c-0.95,0.145,33.35,41.614,68.887,46.334
		c34.524,4.769,43.063-7.968,37.209-21.724C156.709,413.342,139.858,401.837,108.998,393.844z"/>
	<path id="XMLID_102_" d="M97.871,362.303c-0.997-13.161-11.883-26.708-35.65-40.047c-23.653-13.822-45.91-3.715-45.974-3.353
		c-0.658-0.063,17.963,40.86,45.46,52.632C88.512,383.169,98.868,374.976,97.871,362.303z"/>
	<path id="XMLID_101_" d="M26.797,288.671c19.184,15.035,29.572,10.847,31.726,0.298c2.266-10.893-3.683-24.451-20.567-40.208
		c-16.739-16.096-37.291-12.012-37.37-11.77C0.135,236.846,7.082,273.444,26.797,288.671z"/>
	<path id="XMLID_100_" d="M41.124,221.175c4.213-9.118,1.735-22.376-10.18-39.621c-11.69-17.48-30.681-17.729-30.809-17.56
		c-0.32-0.169-1.189,33.262,13.058,50.484C27.07,231.474,37.039,230.01,41.124,221.175z"/>
	<path id="XMLID_99_" d="M39.499,157.94c5.146-6.891,5.388-18.581-1.769-35.063c-6.978-16.611-22.898-19.699-23.026-19.578
		c-0.209-0.146-6.191,27.505,2.67,44.222C26.026,164.009,34.547,164.628,39.499,157.94z"/>
	<path id="XMLID_98_" d="M202.875,424.655c-0.145-0.065-0.256-0.168-0.401-0.232C88.56,362.007,31.67,231.081,60.291,106.273
		c0.097-0.401-0.078-0.708-0.048-1.084c5.467-1.489,11.031-9.207,16.386-24.596c6.498-18.589,3.619-39.026,3.684-39.194
		c0.112-0.186-19.168,10.306-26.501,31.13c-5.789,16.707-4.503,26.814-0.419,30.883c-0.161,0.353-0.353,0.667-0.435,1.061
		C20.3,231.563,74.763,370.16,193.967,439.465c6.529,3.786,13.845,3.225,16.113-0.989
		C212.316,434.279,208.97,428.218,202.875,424.655z"/>
	<path id="XMLID_97_" d="M323.541,314.304c0.082,0.506-20.018,22.923-25.969,48.529c-6.063,26.107-1.271,39.575,13.508,39.559
		c14.135,0.161,31.309-14.771,34.46-43.402C348.08,330.586,323.125,314.481,323.541,314.304z"/>
	<path id="XMLID_96_" d="M350.831,316.193c1.559,23.309,9.357,33.055,21.402,29.491c11.642-3.319,21.853-19.504,17.816-44.186
		c-4.39-24.42-28.847-32.596-28.559-32.796C361.637,269.078,349.303,293.295,350.831,316.193z"/>
	<path id="XMLID_95_" d="M411.47,280.207c8.811-5.371,13.54-20.736,5.177-40.458c-8.618-19.489-30.456-21.556-30.295-21.733
		c0.193,0.258-5.435,23.879,0.854,42.677C393.652,279.819,402.416,285.835,411.47,280.207z"/>
	<path id="XMLID_94_" d="M429.527,217.912c6.673-6.602,7.752-21.099-3.441-37.082c-11.353-15.806-31.035-13.572-30.955-13.748
		c0.21,0.176-0.256,22.906,9.102,38.488C413.736,221.376,422.726,224.77,429.527,217.912z"/>
	<path id="XMLID_93_" d="M433.902,158.977c4.357-6.802,2.782-19.135-9.246-31.083c-12.093-11.739-28.205-6.875-28.141-7.011
		c0.177,0.12,3.554,20.197,14.102,32C421.31,164.829,429.431,165.947,433.902,158.977z"/>
	<path id="XMLID_92_" d="M382.927,393.844c-30.858,7.993-47.711,19.498-53.692,33.931c-5.853,13.756,2.701,26.492,37.21,21.724
		c35.554-4.72,69.853-46.189,68.888-46.334C435.38,402.705,413.673,385.226,382.927,393.844z"/>
	<path id="XMLID_91_" d="M429.704,322.256c-23.782,13.339-34.67,26.886-35.649,40.047c-1.014,12.673,9.357,20.865,36.164,9.232
		c27.498-11.772,46.118-52.695,45.442-52.632C475.597,318.542,453.358,308.434,429.704,322.256z"/>
	<path id="XMLID_90_" d="M453.953,248.761c-16.884,15.758-22.835,29.315-20.551,40.208c2.139,10.549,12.542,14.737,31.727-0.298
		c19.714-15.228,26.645-51.826,26.195-51.681C491.26,236.749,470.708,232.665,453.953,248.761z"/>
	<path id="XMLID_89_" d="M460.981,181.554c-11.932,17.245-14.408,30.503-10.195,39.621c4.102,8.835,14.055,10.299,27.932-6.697
		c14.247-17.222,13.395-50.653,13.057-50.484C491.645,163.825,472.654,164.074,460.981,181.554z"/>
	<path id="XMLID_88_" d="M474.537,147.52c8.858-16.717,2.878-44.367,2.669-44.222c-0.114-0.121-16.033,2.967-23.028,19.578
		c-7.139,16.482-6.898,28.172-1.768,35.063C457.362,164.628,465.901,164.009,474.537,147.52z"/>
	<path id="XMLID_87_" d="M438.967,104.472c-0.098-0.394-0.291-0.708-0.436-1.061c4.085-4.069,5.372-14.176-0.418-30.883
		c-7.348-20.824-26.597-31.316-26.5-31.13c0.049,0.168-2.83,20.605,3.666,39.194c5.372,15.39,10.919,23.107,16.402,24.596
		c0.032,0.376-0.129,0.683-0.047,1.084c28.605,124.808-28.27,255.734-142.183,318.149c-0.129,0.064-0.274,0.167-0.419,0.232
		c-6.094,3.564-9.439,9.624-7.172,13.821c2.235,4.214,9.567,4.775,16.082,0.989C417.162,370.16,471.61,231.563,438.967,104.472z"/>
	<g id="XMLID_84_">
		<path id="XMLID_86_" d="M370.256,216.294l-16.854-31.276c-0.289-5.885-4.595-41.139-7.605-51.537
			c-13.88-47.939-49.801-82.427-91.819-82.427c-92.106,0-124.123,47.435-112.771,126.624c6.706,46.648,26.661,88.16,60.592,109.965
			c0,0-0.563,38.58-0.691,59.753c-0.023,3.805-0.227,7.592,2.058,10.606c2.299,3.007,5.885,4.783,9.681,4.783h52.195
			c4.873,0,10.686-2.627,11.209-7.517c1.85-17.284,5.291-50.975,5.291-50.975h33.912c9.344,0,17.802-5.652,21.355-14.304
			c5.049-12.222,11.545-32.049,14.857-57.688h9.021c3.844,0,7.365-2.002,9.327-5.283
			C371.975,223.74,372.072,219.655,370.256,216.294z"/>
		<path id="XMLID_85_" d="M345.797,133.481C345.716,133.209,345.797,133.481,345.797,133.481L345.797,133.481z"/>
	</g>
</g>
<g>
</g>
<g>
</g>
<g>
</g>
<g>
</g>
<g>
</g>
<g>
</g>
<g>
</g>
<g>
</g>
<g>
</g>
<g>
</g>
<g>
</g>
<g>
</g>
<g>
</g>
<g>
</g>
<g>
</g>
</svg>
