<svg id="adab" xmlns="http://www.w3.org/2000/svg" viewBox="0 0 41.43 45"><defs><style>.cls-1{fill:#fc3;}</style></defs><path class="cls-1" d="M7,23.53a11.78,11.78,0,0,0,2.16,1.19,6.37,6.37,0,0,0,2.41.79,2.2,2.2,0,0,0,1.79-1,2,2,0,0,0,.19-1.3c0-.23-.22-1.22-1.89-2.47a26,26,0,0,0-2.47-1.37,11.31,11.31,0,0,1-3-2.31,8.37,8.37,0,0,1-.91-1.31,2.89,2.89,0,0,0-.75.36,2.61,2.61,0,0,0-.9,1,2.53,2.53,0,0,0-.25,1.07,4,4,0,0,0,.71,2.23A10.11,10.11,0,0,0,7,23.53Z" transform="translate(0 0)"/><path class="cls-1" d="M4.22,27.44a12.23,12.23,0,0,0,2.9,2.06A7.85,7.85,0,0,0,9,30.18a2.64,2.64,0,0,0,.54,0,2.28,2.28,0,0,0,1.65-.63,2.41,2.41,0,0,0,.16-3,11.83,11.83,0,0,1-2.21-.62,12.44,12.44,0,0,1-1.78-.87A9.29,9.29,0,0,1,5.6,23.85a7.13,7.13,0,0,1-1.52-1.54c-.47-.71-.75-1.67-1.19-1.65l-.13,0a4.16,4.16,0,0,0-.82,2,4.75,4.75,0,0,0,.84,3A7.52,7.52,0,0,0,4.22,27.44Z" transform="translate(0 0)"/><path class="cls-1" d="M7.1,16.45a9.81,9.81,0,0,0,5,3.35,2.8,2.8,0,0,0,.56.06,2,2,0,0,0,.76-.14,2.23,2.23,0,0,0,1.15-1.08,2.91,2.91,0,0,0-.32-2.5,5.71,5.71,0,0,0-1.07-1.38c-.52-.56-.79-.84-1.2-.95a1.3,1.3,0,0,0-.52,0,3.19,3.19,0,0,1-.7,0,3.82,3.82,0,0,1-1-.21,2,2,0,0,1-1.22-.79c-.36-.69.29-1.48-.2-2.06l-.11-.11a3.15,3.15,0,0,0-2.07,1.47,3.1,3.1,0,0,0-.27,2.06A4.44,4.44,0,0,0,7.1,16.45Z" transform="translate(0 0)"/><path class="cls-1" d="M37.42,31.12l-.1.07a3,3,0,0,0-.36.67,10.78,10.78,0,0,1-.82,1.42c-2.39,3.51-6.4,4.86-11,6.32-1,.31-2.39.72-4.1,1.12,4.86,1.82,6.22,2.74,6.48,3.25h0s.49.93.93.92h0l.11,0L40.65,34.4C39.65,33.17,37.76,30.92,37.42,31.12Z" transform="translate(0 0)"/><path class="cls-1" d="M1.28,30.61A4.68,4.68,0,0,0,2.59,32a5.14,5.14,0,0,0,.9.48,4,4,0,0,0,1.6.47l.25,0a2.46,2.46,0,0,0,1.34-.64A2.53,2.53,0,0,0,7.43,31c-.21-.09-.49-.23-.83-.41a13.38,13.38,0,0,1-2.65-1.71,14.9,14.9,0,0,1-2.21-2.5l0,0s-.06,0-.1.06a2.79,2.79,0,0,0-.22.3,3.66,3.66,0,0,0-.7,1.86,3.23,3.23,0,0,0,.11,1A3.73,3.73,0,0,0,1.28,30.61Z" transform="translate(0 0)"/><path class="cls-1" d="M41,.48C39.71-.86,36,1,35.62,1.19c-.24.11-.68.38-1.56.91-1.65,1-2.84,1.79-3.15,2a55,55,0,0,1-5.67,3.18,17.68,17.68,0,0,0-3.34,1.3c-.35.18-.39.22-2.81,1.73a25.81,25.81,0,0,1-3.68,2.33c-.86.35-1.48.58-1.53,1s.45.59,1.07,1.4a4.18,4.18,0,0,1,1,2.41,3.56,3.56,0,0,1-.81,2.23,3.9,3.9,0,0,1-1.36,1.1,4.87,4.87,0,0,1,.41.7,4,4,0,0,1,.43,2.74,3.54,3.54,0,0,1-2,2.14,4.35,4.35,0,0,1,.22,1.43A3.52,3.52,0,0,1,12,30.23a3.69,3.69,0,0,1-2.82,1,4,4,0,0,1-.67-.07c-.11.28-1,2.49-2.86,2.76a4.68,4.68,0,0,1-2.76-.63c-.85-.48-1.16-1-1.59-.86,0,0-.48.12-1.2,1.51a1.19,1.19,0,0,0-.1.28L12.26,45c.33-.4.81-1,1.45-1.65a14.11,14.11,0,0,1,3.61-3c.66-.34.69-.24,3.57-.94A46.8,46.8,0,0,0,26,38a34.71,34.71,0,0,0,3.61-1.6c3.74-1.81,4.61-2.71,5.07-3.2a9.37,9.37,0,0,0,1.23-1.71,14,14,0,0,0,1.2-2.74c.7-2.08,1.1-3.33.56-4.53-.06-.13-.42-.93-.89-.93-.28,0-.37.29-1.08,1.26S34.47,26,33.93,26H33.8a.63.63,0,0,1,0-.24,4.2,4.2,0,0,1,.43-.64A12.34,12.34,0,0,0,35.75,23a9.4,9.4,0,0,0,1.19-2.53,4.3,4.3,0,0,0,.19-1.43,2.51,2.51,0,0,0-.39-1.43,2.23,2.23,0,0,0-1.11-.81L34.4,18.16c-.57.62-.89,1-1.33,1-.11,0-.37,0-.45-.17-.23-.42.92-1.59,2.55-3.23a2.92,2.92,0,0,0,.58-.77,2.63,2.63,0,0,0,.24-1.8,2.08,2.08,0,0,0-2-1.7c-1-.05-1.9.61-3.29,1.48a1.63,1.63,0,0,1-1.3.37.91.91,0,0,1-.33-.2l1.19-1q4.83-3.86,9.66-7.55a4.77,4.77,0,0,0,.9-1,4,4,0,0,0,.42-.73A2.56,2.56,0,0,0,41,.48ZM27.17,30.23a6.09,6.09,0,0,1-.63-.06,7.11,7.11,0,0,0-.91-.06,6.82,6.82,0,0,0-.94.07,6.06,6.06,0,0,1-.67.07.83.83,0,0,1-.44-.1.32.32,0,0,1-.16-.29.34.34,0,0,1,.1-.25,1,1,0,0,1,.53-.14.84.84,0,0,0,.56-.2.58.58,0,0,0,.13-.39,5.85,5.85,0,0,0-.47-1.37,5.1,5.1,0,0,0-.58-1.2.93.93,0,0,0-.44-.07H19.59a.57.57,0,0,1-.38-.15.45.45,0,0,1-.17-.35.35.35,0,0,1,.13-.27.46.46,0,0,1,.31-.12H23c.2,0,.29,0,.29-.12a1.36,1.36,0,0,0-.11-.35l-1.81-4.45Q21.2,20,21.12,20c-.07,0-.16.19-.3.57L19.07,25l-1.51,3.67a.83.83,0,0,0-.07.29.36.36,0,0,0,.09.24,1.05,1.05,0,0,0,.45.21,1,1,0,0,1,.44.22.37.37,0,0,1,.09.24q0,.41-.49.41a4.73,4.73,0,0,1-.56-.07,4.49,4.49,0,0,0-.74-.08,3.07,3.07,0,0,0-.62.07,2.51,2.51,0,0,1-.47.07.48.48,0,0,1-.34-.12.36.36,0,0,1-.13-.28.41.41,0,0,1,.08-.3.64.64,0,0,1,.3-.11,1.2,1.2,0,0,0,.88-.52q.24-.41,1.24-2.88l2-4.82q.73-1.73.94-2.3a2.75,2.75,0,0,0,.21-.88,2,2,0,0,0-.07-.39,1.84,1.84,0,0,1-.07-.41A.23.23,0,0,1,21,17a.77.77,0,0,1,.67.38,9.26,9.26,0,0,1,.68,1.44l2.27,5.58q1.24,3,1.57,3.77a3.55,3.55,0,0,0,.54.93,1.28,1.28,0,0,0,.5.31,1.3,1.3,0,0,1,.4.19.4.4,0,0,1,.11.32C27.69,30.13,27.51,30.23,27.17,30.23Z" transform="translate(0 0)"/><path class="cls-1" d="M10,12.46h0a8.27,8.27,0,0,0,1.63.24,4.23,4.23,0,0,0,.65-.05,6.14,6.14,0,0,0,1-.26,10.81,10.81,0,0,0,2-.95c.24-.14.68-.4,1.58-1A36.09,36.09,0,0,1,20,8.4l1.25-.63.38-.2,0,0c0-.05-.07-.14-.13-.24-.37-.62-.89-1-2.21-1.67a7.94,7.94,0,0,0-1.56-.73,3.22,3.22,0,0,0-1.9.26,3.29,3.29,0,0,0-.57.33,57.59,57.59,0,0,0-4.53,4.22c-.11.1-1.57,1.5-1.46,2a1,1,0,0,0,.23.45A.93.93,0,0,0,10,12.46Z" transform="translate(0 0)"/></svg>
