<?xml version="1.0" encoding="utf-8"?>
<!-- Generator: Adobe Illustrator 21.1.0, SVG Export Plug-In . SVG Version: 6.00 Build 0)  -->
<svg version="1.1" xmlns="http://www.w3.org/2000/svg" xmlns:xlink="http://www.w3.org/1999/xlink" x="0px" y="0px"
	 viewBox="0 0 403 377" style="enable-background:new 0 0 403 377;" xml:space="preserve">
<style type="text/css">
	.st0{fill:#CDE7F6;}
	.st1{fill:#D0DADB;}
	.st2{fill:#E8B231;stroke:#272525;stroke-width:4;stroke-miterlimit:10;}
	.st3{fill:#FFF12D;stroke:#272525;stroke-width:7;stroke-miterlimit:10;}
	.st4{fill:#F8EA36;}
	.st5{fill:#D5692E;}
	.st6{fill:none;stroke:#272525;stroke-width:3;stroke-linecap:round;stroke-miterlimit:10;}
	.st7{fill:#E39E37;}
	.st8{fill:#F4D83B;}
	.st9{fill:#FFFFFF;}
	.st10{fill:#E7E7E6;}
	.st11{fill:#AA402D;}
	.st12{fill:#E8AE3A;}
	.st13{fill:none;stroke:#702B1F;stroke-width:3;stroke-linecap:round;stroke-miterlimit:10;}
	.st14{fill:#272525;}
	.st15{fill:#FFCC33;}
</style>
<g id="OBJECTS">
	<g>
		<path class="st0" d="M30.5,363c0.9,0.2,1.8,0.3,2.7,0.3h47.7c0,0,0,0,0.1,0h0.5v-26.7H33.2c-7.3,0-13.3,6-13.3,13.3
			C19.9,356.4,24.5,361.8,30.5,363z"/>
		<g>
			<path class="st1" d="M384.6,316.8l-58.8-69.2l8.4-28c0.6-1.9,0.2-3.8-0.9-5.4c-0.6-0.8-1.4-1.4-2.3-1.9c-1.9-1.5-5.8-4.1-9-4.1
				c-1,0-2,0.3-2.7,0.8l-18.3,11.9l-73.9-116.5c-4.2-6.6-11.4-10.6-19.3-10.6c-7.9,0-15.1,4-19.3,10.6l-72.6,114.4l-13.6-48.1
				l-0.1-0.3l-0.2-0.2c-0.2-0.3-2.5-3-9.3-3c-6.5,0-8.3,2.8-8.5,3.2l-0.1,0.2l-26.1,89.9l-28.9,8.7c-2.6,0.8-4.4,3-4.5,5.7
				c0,0.4,0,0.7,0,1.1c-0.3,3.2-0.3,10.3,3.8,12.1l45.3,19.7c6.1,2.5,12.5,3.8,19,3.8c0,0,0,0,0,0c7.1,0,13.9-1.5,20.3-4.4l13.3-5.8
				h126.2l-1.6,9.1c-0.6,4,4.6,7.6,7.6,9.2c1.1,1,2.6,1.6,4.2,1.6c1.4,0,2.7-0.5,3.8-1.3l20.8-16.5l87.2,27.9l0.3,0.1l0.3,0
				c0.4,0,3.8-0.5,7.4-5.9C386.1,320.1,384.8,317.1,384.6,316.8z"/>
			<g>
				<path class="st2" d="M177.1,92.4L74.5,254.3c-8.8,13.9,1.2,32,17.6,32h205.3c16.4,0,26.4-18.1,17.6-32L212.4,92.4
					C204.2,79.5,185.3,79.5,177.1,92.4z"/>
				<path class="st3" d="M92.1,268.2c-0.4,0-1.6,0-2.4-1.4c-0.8-1.4-0.1-2.5,0.1-2.8l102.6-161.8c0.5-0.9,1.3-1.3,2.4-1.3
					c1,0,1.8,0.4,2.4,1.3L299.8,264c0.2,0.3,0.9,1.4,0.1,2.8c-0.8,1.4-2,1.4-2.4,1.4H92.1z"/>
				<g>
					<path class="st4" d="M133,180.8c-0.7,0-1.3-0.2-1.9-0.6c-1.7-1.1-2.2-3.3-1.1-5l51.8-80.7c1.1-1.7,3.3-2.2,5-1.1
						c1.7,1.1,2.2,3.3,1.1,5l-51.8,80.7C135.4,180.2,134.2,180.8,133,180.8z"/>
				</g>
			</g>
			<g>
				<path class="st5" d="M17.5,275l45.3,19.7c12.3,5.2,26.1,4.9,38.2-0.6l41.4-18.2c4-1.8,3.7-7.6-0.5-9L80.9,247
					c-0.2-0.1-0.4-0.1-0.5,0l-62.5,18.9C13.6,267.2,13.3,273.2,17.5,275z"/>
				<path class="st6" d="M17.5,275l45.3,19.7c12.3,5.2,26.1,4.9,38.2-0.6l41.4-18.2c4-1.8,2.6-12.2,2.6-12.2l-64-16.7
					c-0.2-0.1-0.4-0.1-0.5,0l-65.7,16C14.7,263,13.3,273.2,17.5,275z"/>
				<path class="st7" d="M17.5,268l45.3,19.7c12.3,5.2,26.1,4.9,38.2-0.6l41.4-18.2c4-1.8,3.7-7.6-0.5-9L80.9,240
					c-0.2-0.1-0.4-0.1-0.5,0l-62.5,18.9C13.6,260.2,13.3,266.2,17.5,268z"/>
				<path class="st8" d="M103.1,277.3c-6.2-2.8-12.2-5.9-18.2-9.1c-10.1-5.2-20.2-10.4-30.4-15.4l-32.6,9.8
					c-1.1,0.3-1.2,1.8-0.1,2.3l40.7,17.7c5.2,2.2,10.7,3.3,16.3,3.3c0,0,0,0,0,0c6.1,0,12-1.3,17.6-3.8l8.8-3.9
					C104.5,277.9,103.8,277.6,103.1,277.3z"/>
				<path class="st6" d="M17.5,268l45.3,19.7c12.3,5.2,26.1,4.9,38.2-0.6l41.4-18.2c4-1.8,3.7-7.6-0.5-9L80.9,240
					c-0.2-0.1-0.4-0.1-0.5,0l-62.5,18.9C13.6,260.2,13.3,266.2,17.5,268z"/>
				<g>
					<path class="st9" d="M43.5,264.1c0,0,3.4,15.8,36.4,16.1c33,0.3,39.5-13.8,39.5-13.8l-30.1-107c0,0-1.9-2.4-8.1-2.4
						c-5.8,0-7.2,2.4-7.2,2.4L43.5,264.1z"/>
					<g>
						<path class="st10" d="M119.4,266.4l-30.1-107c0,0-1.9-2.4-8.1-2.4c-0.9,0-1.8,0.1-2.5,0.2l28.2,118.8
							C116.8,271.9,119.4,266.4,119.4,266.4z"/>
					</g>
					<path class="st6" d="M49.5,248c0,0,27,16.1,64.2,0"/>
					<path class="st6" d="M54.9,225.3c9,3.5,28.4,8.5,53-0.2"/>
					<path class="st6" d="M61.2,202.2c9.2,2.5,23.2,4.3,40-0.3"/>
					<path class="st6" d="M68.3,178.5c7.2,1.2,16.2,1.6,26.4-0.3"/>
					<path class="st6" d="M43.5,264.1c0,0,3.4,15.8,36.4,16.1c33,0.3,39.5-13.8,39.5-13.8l-30.1-107c0,0-1.9-2.4-8.1-2.4
						c-5.8,0-7.2,2.4-7.2,2.4L43.5,264.1z"/>
				</g>
				<g>
					<g>
						<path class="st5" d="M113.1,249.9c-12.2,5.1-23.3,6.9-32.7,6.9c-16.9,0-28.3-5.6-31.1-7.1l-4.2,14.4
							c0.7,2.1,6.2,14.3,34.8,14.5l0.9,0c27.3,0,35.4-10.1,36.9-12.4L113.1,249.9z"/>
						<path class="st5" d="M92.6,177l-4.7-16.8c-0.5-0.4-2.4-1.7-6.7-1.7c-4,0-5.4,1.2-5.8,1.6l-5,17.1
							C77.6,178.3,85.1,178.2,92.6,177z"/>
						<path class="st5" d="M105.8,224.1l-5.7-20.3c-7.1,1.8-13.7,2.5-19.6,2.5c-7.1,0-13.2-1-18-2.2l-5.9,20.2
							C66,227.7,83.7,231.5,105.8,224.1z"/>
						<g>
							<path class="st11" d="M117.7,265.4l-4.6-16.3c-4,1.7-7.8,3-11.5,4l4.9,20.5C113.9,270.5,116.8,266.7,117.7,265.4z"/>
							<path class="st11" d="M87.8,160.2c-0.5-0.4-2.4-1.7-6.7-1.7c-0.8,0-1.5,0.1-2.1,0.1l4.6,19.2c3-0.1,6-0.4,9-0.9L87.8,160.2z"
								/>
							<path class="st11" d="M100.1,203.8c-3.5,0.9-6.8,1.5-10,1.9l5,21.2c3.4-0.7,7-1.6,10.6-2.8L100.1,203.8z"/>
						</g>
					</g>
				</g>
				<path class="st12" d="M75.3,179l2-17.8l-5,17.5C73.3,178.8,74.3,178.9,75.3,179z"/>
				<path class="st12" d="M65.2,203.3l-6.9,24c3.5,1.7,7.5,1.7,11.4,2.2l2.8-25.2C70.1,204.1,67.7,203.7,65.2,203.3z"/>
				<path class="st12" d="M52.1,248.9l-4.2,14.6c6,9.9,16.9,10.3,16.9,10.3l2.2-20.3C62.1,252.4,56.3,252.1,52.1,248.9z"/>
				<g>
					<path class="st6" d="M43.5,264.1c0,0,3.4,15.8,36.4,16.1c33,0.3,39.5-13.8,39.5-13.8l-30.1-107c0,0-1.9-2.4-8.1-2.4
						c-5.8,0-7.2,2.4-7.2,2.4L43.5,264.1z"/>
					<path class="st6" d="M49.5,248c0,0,27,16.1,64.2,0"/>
					<path class="st6" d="M54.9,225.3c9,3.5,28.4,8.5,53-0.2"/>
					<path class="st6" d="M61.2,202.2c9.2,2.5,23.2,4.3,40-0.3"/>
					<path class="st6" d="M68.3,178.5c7.2,1.2,16.2,1.6,26.4-0.3"/>
				</g>
				<line class="st13" x1="110" y1="255" x2="112.9" y2="265.9"/>
				<line class="st13" x1="97.4" y1="208" x2="100.9" y2="221.2"/>
				<line class="st13" x1="85.7" y1="163.6" x2="87.9" y2="172.6"/>
			</g>
			<g>
				<path class="st5" d="M318.3,194.2l-41.4,26.9c-11.1,7.4-18.5,19.1-20.6,32.2l-7.7,44.6c-0.7,4.4,4.3,7.3,7.8,4.5l50.2-39.9
					c0.1-0.1,0.2-0.3,0.3-0.4l18.7-62.5C326.9,195.3,322,191.7,318.3,194.2z"/>
				<path class="st6" d="M318.3,194.2l-41.4,26.9c-11.1,7.4-18.5,19.1-20.6,32.2l-7.7,44.6c-0.7,4.4,8.8,8.9,8.8,8.9l49.2-44.2
					c0.1-0.1,0.2-0.3,0.3-0.4l22.8-63.7C329.8,198.5,322,191.7,318.3,194.2z"/>
				<path class="st7" d="M324.1,198.1L282.7,225c-11.1,7.4-18.5,19.1-20.6,32.2l-7.7,44.6c-0.7,4.4,4.3,7.3,7.8,4.5l50.2-39.9
					c0.1-0.1,0.2-0.3,0.3-0.4l18.7-62.5C332.7,199.2,327.9,195.6,324.1,198.1z"/>
				<path class="st8" d="M269.1,264.4c5.7-3.6,11.7-6.9,17.6-10.2c9.9-5.6,19.8-11.1,29.6-16.8l9.7-32.6c0.3-1.1-0.9-2-1.8-1.4
					L287,227.6c-4.7,3.1-8.6,7.1-11.8,11.8c0,0,0,0,0,0c-3.3,5.1-5.5,10.7-6.5,16.8l-1.6,9.5C267.8,265.2,268.5,264.8,269.1,264.4z"
					/>
				<path class="st6" d="M324.1,198.1L282.7,225c-11.1,7.4-18.5,19.1-20.6,32.2l-7.7,44.6c-0.7,4.4,4.3,7.3,7.8,4.5l50.2-39.9
					c0.1-0.1,0.2-0.3,0.3-0.4l18.7-62.5C332.7,199.2,327.9,195.6,324.1,198.1z"/>
				<g>
					<path class="st9" d="M313,222c0,0-15.1-5.9-33.5,21.5c-18.4,27.4-10.3,40.5-10.3,40.5l105.9,33.8c0,0,3-0.2,6.5-5.4
						c3.2-4.9,2-7.3,2-7.3L313,222z"/>
					<g>
						<path class="st10" d="M269.3,284l105.9,33.8c0,0,3-0.2,6.5-5.4c0.5-0.8,0.9-1.5,1.2-2.2l-114.7-41.9
							C266.1,278.9,269.3,284,269.3,284z"/>
					</g>
					<path class="st6" d="M323.2,235.9c0,0-28.3,13.7-35.4,53.5"/>
					<path class="st6" d="M339.1,252.9c-7.9,5.6-22.8,19-29,44.3"/>
					<path class="st6" d="M354.9,270.9c-7.2,6.3-16.4,17-21.8,33.5"/>
					<path class="st6" d="M370.7,289.8c-5,5.3-10.2,12.6-14.3,22.2"/>
					<path class="st6" d="M313,222c0,0-15.1-5.9-33.5,21.5c-18.4,27.4-10.3,40.5-10.3,40.5l105.9,33.8c0,0,3-0.2,6.5-5.4
						c3.2-4.9,2-7.3,2-7.3L313,222z"/>
				</g>
				<g>
					<g>
						<path class="st5" d="M286.5,287.9c2.5-13,7.1-23.2,12.3-31.1c9.3-14.1,20.2-20.5,23-22l-9.7-11.4c-2.2-0.6-15.4-2.7-31.3,21
							l-0.5,0.7c-15,22.8-11.1,35.1-10,37.6L286.5,287.9z"/>
						<path class="st5" d="M358.6,310.9l16.6,5.3c0.6-0.2,2.7-1.1,5.1-4.7c2.2-3.3,2-5.2,1.9-5.7l-11.6-13.6
							C365.8,297.7,361.8,304,358.6,310.9z"/>
						<path class="st5" d="M312,296l20.1,6.4c2.4-6.9,5.5-12.8,8.7-17.7c3.9-5.9,8.1-10.5,11.7-13.8l-13.6-16
							C331,260.8,318,273.4,312,296z"/>
						<g>
							<path class="st11" d="M271,283.1l16.1,5.2c0.8-4.2,1.8-8.1,3-11.8l-19.8-7.2C268.9,277.1,270.4,281.7,271,283.1z"/>
							<path class="st11" d="M375.3,316.2c0.6-0.2,2.7-1.1,5.1-4.7c0.4-0.7,0.8-1.3,1.1-1.9l-18.5-6.8c-1.5,2.6-3,5.2-4.2,8
								L375.3,316.2z"/>
							<path class="st11" d="M332.1,302.4c1.2-3.4,2.5-6.5,3.9-9.3l-20.5-7.5c-1.3,3.2-2.5,6.7-3.5,10.4L332.1,302.4z"/>
						</g>
					</g>
				</g>
				<path class="st12" d="M366.5,295.4l13.7,11.4L368.4,293C367.8,293.8,367.1,294.6,366.5,295.4z"/>
				<path class="st12" d="M351.8,273.6l-16.2-19c-3.4,2-5.6,5.4-8.1,8.3l19.5,16.2C348.4,277.2,350.1,275.4,351.8,273.6z"/>
				<path class="st12" d="M320.9,237.5L311,226c-11.5-0.5-18,8.5-18,8.5l15.7,13C312.5,243.9,315.9,239.3,320.9,237.5z"/>
				<g>
					<path class="st6" d="M313,222c0,0-15.1-5.9-33.5,21.5c-18.4,27.4-10.3,40.5-10.3,40.5l105.9,33.8c0,0,3-0.2,6.5-5.4
						c3.2-4.9,2-7.3,2-7.3L313,222z"/>
					<path class="st6" d="M323.2,235.9c0,0-28.3,13.7-35.4,53.5"/>
					<path class="st6" d="M339.1,252.9c-7.9,5.6-22.8,19-29,44.3"/>
					<path class="st6" d="M354.9,270.9c-7.2,6.3-16.4,17-21.8,33.5"/>
					<path class="st6" d="M370.7,289.8c-5,5.3-10.2,12.6-14.3,22.2"/>
				</g>
				<line class="st13" x1="283.9" y1="282.5" x2="273.3" y2="278.9"/>
				<line class="st13" x1="330.1" y1="297.9" x2="317.1" y2="293.5"/>
				<line class="st13" x1="373.6" y1="312.5" x2="364.9" y2="309.5"/>
			</g>
			<g>
				<path class="st14" d="M176.6,209.1h-3.7v6h-8.6v-6h-16.9v-7.9l11.9-23.4h9.2l-11.9,23.4h7.8v-8h8.6v8h3.7V209.1z"/>
				<path class="st14" d="M178.7,196.5c0-11.5,5.5-19.4,15.2-19.4c9.6,0,15.2,7.9,15.2,19.4c0,11.5-5.5,19.4-15.2,19.4
					C184.2,215.8,178.7,208,178.7,196.5z M200.5,196.5c0-7.2-2.2-11.1-6.7-11.1c-4.5,0-6.7,3.9-6.7,11.1c0,7.2,2.2,11.1,6.7,11.1
					C198.3,207.5,200.5,203.7,200.5,196.5z"/>
				<path class="st14" d="M241,209.1h-3.7v6h-8.6v-6h-16.9v-7.9l11.9-23.4h9.2l-11.9,23.4h7.8v-8h8.6v8h3.7V209.1z"/>
			</g>
			<g>
				<rect x="150" y="223.7" class="st14" width="89.5" height="27"/>
				<g>
					<path class="st9" d="M168.3,240.2v3.1h-8.8v-14h8.7v3.1h-5.5v2.3h5v3h-5v2.5H168.3z"/>
					<path class="st9" d="M176.8,238.7h-1.5v4.6h-3.2v-14h5.6c2.7,0,4.8,2.1,4.8,4.8c0,1.7-1,3.3-2.6,4.1l3,5.1h-3.4L176.8,238.7z
						 M175.3,235.9h2.4c0.9,0,1.6-0.8,1.6-1.8c0-1-0.7-1.8-1.6-1.8h-2.4V235.9z"/>
					<path class="st9" d="M191.1,238.7h-1.5v4.6h-3.2v-14h5.6c2.7,0,4.8,2.1,4.8,4.8c0,1.7-1,3.3-2.6,4.1l3,5.1h-3.4L191.1,238.7z
						 M189.5,235.9h2.4c0.9,0,1.6-0.8,1.6-1.8c0-1-0.7-1.8-1.6-1.8h-2.4V235.9z"/>
					<path class="st9" d="M199.8,236.3c0-4.1,3.3-7.3,7.3-7.3c4,0,7.3,3.2,7.3,7.3c0,4.1-3.3,7.3-7.3,7.3
						C203.1,243.6,199.8,240.4,199.8,236.3z M211.2,236.3c0-2.5-1.8-4.2-4.1-4.2c-2.3,0-4.1,1.7-4.1,4.2c0,2.5,1.8,4.2,4.1,4.2
						C209.4,240.4,211.2,238.8,211.2,236.3z"/>
					<path class="st9" d="M222.9,238.7h-1.5v4.6h-3.2v-14h5.6c2.7,0,4.8,2.1,4.8,4.8c0,1.7-1,3.3-2.6,4.1l3,5.1h-3.4L222.9,238.7z
						 M221.4,235.9h2.4c0.9,0,1.6-0.8,1.6-1.8c0-1-0.7-1.8-1.6-1.8h-2.4V235.9z"/>
				</g>
			</g>
		</g>
		<g>
			<path class="st6" d="M294.2,38.6c-0.1,0-0.2,0-0.2,0c-1.2-6.9-7.2-12.1-14.5-12.1c-8.1,0-14.7,6.6-14.7,14.7
				c0,1.1,0.1,2.2,0.4,3.3c-0.7-0.2-1.4-0.3-2.2-0.3c-4.7,0-8.4,3.8-8.4,8.4c0,4.3,3.2,7.8,7.3,8.4v0.1h32.4c6.2,0,11.2-5,11.2-11.2
				S300.4,38.6,294.2,38.6z"/>
			<path class="st6" d="M285.3,43.1c2-2.7,5.3-4.4,8.9-4.4c6.2,0,11.2,5,11.2,11.2"/>
			<path class="st6" d="M270.4,39.3c0.8-2.6,2.6-6.1,6.8-7.6"/>
		</g>
		<g>
			<g>
				<path class="st6" d="M76.4,62.9c0.4-1.6,0.6-3.2,0.6-4.9c0-12.2-9.9-22.1-22.1-22.1c-10.9,0-19.9,7.9-21.8,18.2
					c-0.1,0-0.2,0-0.3,0c-9.3,0-16.9,7.5-16.9,16.9s7.5,16.9,16.9,16.9h31.1"/>
				<path class="st6" d="M46.2,60.8c-3.1-4.1-8-6.7-13.4-6.7c-9.3,0-16.9,7.5-16.9,16.9"/>
			</g>
			<path class="st6" d="M72.9,71.2c0-6,4.8-10.8,10.8-10.8s10.8,4.8,10.8,10.8h31"/>
			<line class="st6" x1="72.8" y1="87.7" x2="90.2" y2="87.7"/>
			<line class="st6" x1="132.7" y1="71" x2="139.4" y2="71"/>
		</g>
		<g>
			<g>
				<path class="st6" d="M301,151.4h38.6c4.1,0,7.4-3.3,7.4-7.4s-3.3-7.4-7.4-7.4c-0.1,0-0.1,0-0.2,0c-0.8-4.6-4.8-8.1-9.6-8.1
					c-5.4,0-9.8,4.4-9.8,9.8c0,0.7,0.1,1.5,0.2,2.2"/>
				<path class="st6" d="M333.6,139.5c1.4-1.8,3.5-2.9,5.9-2.9c4.1,0,7.4,3.3,7.4,7.4"/>
			</g>
			<g>
				<path class="st6" d="M372.3,150.7c8.1,0,14.7-6.6,14.7-14.7c0-8.1-6.6-14.7-14.7-14.7c-0.1,0-0.2,0-0.3,0
					c-1.6-9.1-9.5-15.9-19-15.9c-10.7,0-19.3,8.7-19.3,19.3c0,1.5,0.2,2.9,0.5,4.3"/>
				<path class="st6" d="M360.6,127c2.7-3.5,7-5.8,11.7-5.8c8.1,0,14.7,6.6,14.7,14.7"/>
				<path class="st6" d="M339.3,125.2c0,0,0.3-10.7,9.6-14.1"/>
			</g>
			<line class="st6" x1="294.6" y1="151.4" x2="289.2" y2="151.4"/>
		</g>
		<g>
			<line class="st6" x1="316.3" y1="108.7" x2="316.3" y2="115.5"/>
			<line class="st6" x1="319.7" y1="112.1" x2="312.9" y2="112.1"/>
		</g>
		<g>
			<line class="st6" x1="99.8" y1="34.2" x2="99.8" y2="41"/>
			<line class="st6" x1="103.2" y1="37.6" x2="96.4" y2="37.6"/>
		</g>
		<g>
			<line class="st6" x1="117.7" y1="109.9" x2="117.7" y2="116.7"/>
			<line class="st6" x1="121.1" y1="113.3" x2="114.3" y2="113.3"/>
		</g>
		<g>
			<line class="st6" x1="227" y1="18" x2="227" y2="24.8"/>
			<line class="st6" x1="230.4" y1="21.4" x2="223.6" y2="21.4"/>
		</g>
		<line class="st6" x1="76.7" y1="131" x2="57.7" y2="131"/>
		<line class="st6" x1="48.3" y1="131" x2="44.7" y2="131"/>
		<g>
			<path class="st14" d="M91.5,348.5c0-5.7,4.5-10,10-10c5.5,0,10,4.3,10,10c0,5.7-4.5,10-10,10C96,358.5,91.5,354.2,91.5,348.5z
				 M107.2,348.5c0-3.4-2.5-5.7-5.6-5.7c-3.1,0-5.6,2.3-5.6,5.7c0,3.4,2.5,5.7,5.6,5.7C104.7,354.3,107.2,352,107.2,348.5z"/>
			<path class="st14" d="M113.2,351.3c0-4.1,3.2-7.3,7.3-7.3c4,0,7.3,3.2,7.3,7.3s-3.2,7.3-7.3,7.3
				C116.5,358.5,113.2,355.4,113.2,351.3z M123.7,351.3c0-2-1.4-3.2-3.2-3.2s-3.2,1.3-3.2,3.2s1.4,3.2,3.2,3.2
				S123.7,353.2,123.7,351.3z"/>
			<path class="st14" d="M144.9,351.3c0,4.1-3,7.3-6.6,7.3c-1.8,0-3.2-0.6-4.1-1.7v6.8h-4.1v-19.3h4.1v1.3c0.9-1,2.3-1.7,4.1-1.7
				C142,344,144.9,347.2,144.9,351.3z M140.8,351.3c0-2.1-1.4-3.4-3.3-3.4s-3.3,1.3-3.3,3.4s1.4,3.4,3.3,3.4
				S140.8,353.3,140.8,351.3z"/>
			<path class="st14" d="M157.7,354c0,3.2-2.8,4.5-5.7,4.5c-2.8,0-4.8-1-5.9-3.3l3.6-2c0.4,1,1.1,1.6,2.3,1.6c1,0,1.5-0.3,1.5-0.9
				c0-1.5-6.8-0.7-6.8-5.5c0-3,2.5-4.5,5.4-4.5c2.2,0,4.2,1,5.4,2.9l-3.5,1.9c-0.4-0.7-0.9-1.2-1.8-1.2c-0.7,0-1.2,0.3-1.2,0.8
				C150.9,350,157.7,348.9,157.7,354z"/>
			<path class="st14" d="M159.3,355.9c0-1.4,1.2-2.6,2.6-2.6s2.6,1.2,2.6,2.6s-1.2,2.6-2.6,2.6S159.3,357.4,159.3,355.9z"/>
			<path class="st14" d="M167,355.9c0-1.4,1.2-2.6,2.6-2.6s2.6,1.2,2.6,2.6s-1.2,2.6-2.6,2.6S167,357.4,167,355.9z"/>
			<path class="st14" d="M188.5,350.9c0,1.8-1.4,3.2-3.3,3.2h-2.8v4h-0.8v-10.5h3.6C187.1,347.7,188.5,349.1,188.5,350.9z
				 M187.7,350.9c0-1.5-1-2.5-2.5-2.5h-2.8v5h2.8C186.7,353.4,187.7,352.4,187.7,350.9z"/>
			<path class="st14" d="M197.1,350.7v7.5h-0.8v-1.7c-0.6,1.1-1.8,1.9-3.2,1.9c-2.1,0-3.9-1.7-3.9-3.9s1.8-3.9,3.9-3.9
				c1.4,0,2.6,0.7,3.2,1.9v-1.7H197.1z M196.3,354.4c0-1.8-1.4-3.2-3.2-3.2s-3.2,1.4-3.2,3.2s1.4,3.2,3.2,3.2
				S196.3,356.2,196.3,354.4z"/>
			<path class="st14" d="M206.8,350.7v7.1c0,2.3-1.7,3.5-3.7,3.5c-1.8,0-3-0.7-3.5-1.8l0.7-0.4c0.4,0.8,1.2,1.5,2.9,1.5
				c1.9,0,3-1.1,3-2.8v-1.4c-0.6,1.2-1.8,1.9-3.2,1.9c-2.1,0-3.9-1.7-3.9-3.9s1.7-3.9,3.9-3.9c1.5,0,2.6,0.8,3.2,1.9v-1.7H206.8z
				 M206,354.4c0-1.8-1.4-3.2-3.2-3.2s-3.2,1.4-3.2,3.2s1.4,3.2,3.2,3.2S206,356.2,206,354.4z"/>
			<path class="st14" d="M216.2,354.4c0,0.1,0,0.2,0,0.4h-6.8c0.2,1.7,1.5,2.8,3.2,2.8c1.2,0,2.2-0.6,2.6-1.4l0.7,0.4
				c-0.6,1-1.8,1.7-3.3,1.7c-2.3,0-3.9-1.7-3.9-3.9c0-2.2,1.6-3.9,3.9-3.9C214.8,350.5,216.2,352.4,216.2,354.4z M209.4,354.1h6
				c-0.2-1.8-1.5-2.8-2.9-2.8C210.8,351.2,209.5,352.4,209.4,354.1z"/>
			<path class="st14" d="M229.8,347.7v10.5h-0.7l-6.2-9v9h-0.8v-10.5h0.7l6.2,9v-9H229.8z"/>
			<path class="st14" d="M231.7,354.4c0-2.2,1.8-3.9,3.9-3.9c2.2,0,3.9,1.7,3.9,3.9s-1.8,3.9-3.9,3.9
				C233.5,358.3,231.7,356.6,231.7,354.4z M238.8,354.4c0-1.8-1.4-3.2-3.2-3.2s-3.2,1.4-3.2,3.2s1.4,3.2,3.2,3.2
				S238.8,356.2,238.8,354.4z"/>
			<path class="st14" d="M242.9,351.4v4.9c0,1.3,0.7,1.3,2.2,1.2v0.7c-2,0.3-3-0.2-3-1.9v-4.9h-1.7v-0.7h1.7v-1.9l0.8-0.2v2.1h2.2
				v0.7H242.9z"/>
			<path class="st14" d="M251.9,348.4v4.2h4.8v0.8h-4.8v4.8h-0.8v-10.5h5.8v0.8H251.9z"/>
			<path class="st14" d="M258.2,354.4c0-2.2,1.8-3.9,3.9-3.9c2.2,0,3.9,1.7,3.9,3.9s-1.8,3.9-3.9,3.9
				C259.9,358.3,258.2,356.6,258.2,354.4z M265.3,354.4c0-1.8-1.4-3.2-3.2-3.2s-3.2,1.4-3.2,3.2s1.4,3.2,3.2,3.2
				S265.3,356.2,265.3,354.4z"/>
			<path class="st14" d="M274,350.7v7.5h-0.8v-1.4c-0.6,1.1-1.5,1.6-2.7,1.6c-1.8,0-2.9-1.2-2.9-3v-4.7h0.8v4.7
				c0,1.4,0.8,2.3,2.2,2.3c1.5,0,2.6-1,2.6-3v-4H274z"/>
			<path class="st14" d="M282.6,353.5v4.7h-0.8v-4.7c0-1.4-0.8-2.3-2.2-2.3c-1.5,0-2.6,1-2.6,3v4h-0.8v-7.5h0.8v1.4
				c0.6-1.1,1.5-1.6,2.7-1.6C281.5,350.5,282.6,351.7,282.6,353.5z"/>
			<path class="st14" d="M292.1,347.7v10.5h-0.8v-1.7c-0.6,1.2-1.8,1.9-3.2,1.9c-2.1,0-3.9-1.7-3.9-3.9s1.7-3.9,3.9-3.9
				c1.5,0,2.6,0.8,3.2,1.9v-4.7H292.1z M291.4,354.4c0-1.8-1.4-3.2-3.2-3.2s-3.2,1.4-3.2,3.2s1.4,3.2,3.2,3.2
				S291.4,356.2,291.4,354.4z"/>
		</g>
		<path class="st0" d="M354.9,336.5c-0.9-0.2-1.8-0.3-2.7-0.3h-47.7c0,0,0,0-0.1,0h-0.5v26.7h48.3c7.3,0,13.3-6,13.3-13.3
			C365.5,343.1,360.9,337.7,354.9,336.5z"/>
	</g>
	<g>
		<path class="st14" d="M123.1,59H116l-1,3h-4.8l6.5-19.3h5.6l6.5,19.3h-4.8L123.1,59z M121.8,54.8l-2.3-7.1l-2.3,7.1H121.8z"/>
		<path class="st14" d="M144.1,42.7V62H140v-1.3c-0.9,1-2.3,1.7-4.1,1.7c-3.6,0-6.6-3.2-6.6-7.3s3-7.3,6.6-7.3
			c1.8,0,3.2,0.6,4.1,1.7v-6.8H144.1z M140,55.1c0-2.1-1.4-3.4-3.3-3.4c-1.9,0-3.3,1.3-3.3,3.4s1.4,3.4,3.3,3.4
			C138.6,58.5,140,57.2,140,55.1z"/>
		<path class="st14" d="M161.3,48.2V62h-4.1v-1.3c-0.9,1-2.3,1.7-4.1,1.7c-3.6,0-6.6-3.2-6.6-7.3s3-7.3,6.6-7.3
			c1.8,0,3.2,0.6,4.1,1.7v-1.3H161.3z M157.1,55.1c0-2.1-1.4-3.4-3.3-3.4c-1.9,0-3.3,1.3-3.3,3.4s1.4,3.4,3.3,3.4
			C155.8,58.5,157.1,57.2,157.1,55.1z"/>
		<path class="st14" d="M179.1,55.1c0,4.1-3,7.3-6.6,7.3c-1.8,0-3.2-0.6-4.1-1.7V62h-4.1V42.7h4.1v6.8c0.9-1,2.3-1.7,4.1-1.7
			C176.1,47.9,179.1,51,179.1,55.1z M175,55.1c0-2.1-1.4-3.4-3.3-3.4s-3.3,1.3-3.3,3.4s1.4,3.4,3.3,3.4S175,57.2,175,55.1z"/>
		<path class="st15" d="M180,59.8c0-1.4,1.2-2.6,2.6-2.6s2.6,1.2,2.6,2.6s-1.2,2.6-2.6,2.6S180,61.2,180,59.8z"/>
		<path class="st15" d="M191.6,52.2v4.9c0,1.2,1,1.3,2.8,1.2V62c-5.4,0.5-7-1.1-7-4.9v-4.9h-2.2v-4h2.2v-2.6l4.1-1.2v3.9h2.8v4
			H191.6z"/>
		<path class="st15" d="M197.5,48.2h4.1V62c0,4.3-2,6.1-6.3,5.9v-4c1.5,0.1,2.2-0.5,2.2-1.9V48.2z M197,44.6c0-1.3,1.1-2.5,2.5-2.5
			s2.5,1.1,2.5,2.5s-1.1,2.5-2.5,2.5S197,45.9,197,44.6z"/>
	</g>
</g>
<g id="DESIGNED_BY_FREEPIK">
</g>
</svg>
